<?xml version="1.0" encoding="utf-8" ?>
<svg xmlns="http://www.w3.org/2000/svg" xmlns:xlink="http://www.w3.org/1999/xlink" width="32" height="32" viewBox="0 0 32 32">
	<defs>
		<clipPath id="clipPath1333138406">
			<path d="M0 0L32 0L32 32L0 32L0 0Z" fill-rule="nonzero" transform="matrix(1 0 0 1 0 0)"/>
		</clipPath>
	</defs>
	<g clip-path="url(#clipPath1333138406)">
		<defs>
			<clipPath id="clipPath9149722584">
				<path d="M0 0L32 0L32 32L0 32L0 0Z" fill-rule="nonzero" transform="matrix(1 0 0 1 -0 -0)"/>
			</clipPath>
		</defs>
		<g clip-path="url(#clipPath9149722584)">
			<path d="M17.66 5.87355Q19.8355 7.27864 21.2967 9.16193Q22.7028 10.9741 23.3157 13.0521Q23.9181 15.0949 23.6836 17.1446Q23.5496 18.3155 23.1526 19.4Q24.643 19.7698 26.2138 20.0114C26.7597 20.0954 27.1341 20.606 27.0501 21.1518C26.9661 21.6977 26.4555 22.0721 25.9097 21.9882Q24.0283 21.6987 22.253 21.2347Q21.1862 22.9085 19.2752 23.8904Q17.3611 24.8739 14.9931 24.9653Q12.6235 25.0568 10.3171 24.2321Q7.87388 23.3585 5.95603 21.6081Q3.49639 19.3611 1.77127 15.2611Q0.381509 11.9582 -0.376074 7.88548Q-0.690593 6.19465 -0.853025 4.57661Q-1.00224 3.09022 -0.999968 1.91512Q-0.997644 0.714171 -0.832155 0.0880063Q-0.679498 -0.489606 -0.31704 -0.767289Q0.102648 -1.08882 0.612871 -0.971664Q0.961228 -0.891679 1.22626 -0.610582Q3.09537 1.36847 5.50553 2.29124Q6.48687 2.66695 7.7412 2.94455Q8.51263 3.11528 10.0886 3.38041Q11.3039 3.58487 11.9191 3.70655Q12.9626 3.91292 13.8036 4.15387Q15.9496 4.76875 17.6599 5.87351L17.66 5.87355ZM21.2199 18.8559Q18.8318 18.101 16.6658 16.9924Q12.5141 14.8676 8.49738 11.0843C8.09535 10.7057 7.46246 10.7246 7.0838 11.1267C6.70514 11.5287 6.72409 12.1616 7.12612 12.5402Q11.3498 16.5184 15.7546 18.7728Q17.8903 19.8659 20.2227 20.6357Q19.4978 21.5275 18.3612 22.1115Q16.8412 22.8925 14.9159 22.9668Q12.9327 23.0433 10.9904 22.3489Q8.92546 21.6105 7.30497 20.1315Q5.16954 18.1807 3.61473 14.4855Q2.30843 11.3809 1.5902 7.51973Q1.29102 5.91139 1.13697 4.37684Q0.998183 2.9943 1.00002 1.92254Q2.72119 3.36679 4.79042 4.15902Q5.91009 4.5877 7.30903 4.8973Q8.13039 5.07907 9.75676 5.35269Q10.9439 5.55241 11.5311 5.66854Q12.4923 5.85865 13.2527 6.07651Q15.1137 6.6097 16.5748 7.55353L16.5748 7.55357Q18.4642 8.77382 19.7166 10.388Q20.8913 11.9019 21.3974 13.6179Q21.8849 15.2711 21.6966 16.9172Q21.581 17.9267 21.2199 18.8559Z" fill-rule="evenodd" transform="matrix(1 0 0 1 3.00075 4.00021)" fill="rgb(46, 125, 50)"/>
		</g>
	</g>
</svg>
