<?xml version="1.0" encoding="utf-8" ?>
<svg xmlns="http://www.w3.org/2000/svg" xmlns:xlink="http://www.w3.org/1999/xlink" width="138.9688" height="32" viewBox="0 0 138.9688 32">
	<defs>
		<clipPath id="clipPath8929872747">
			<path d="M0 0L32 0L32 28.4444L0 28.4444L0 0Z" fill-rule="nonzero" transform="matrix(1 0 0 1 0 1.77778)"/>
		</clipPath>
	</defs>
	<g clip-path="url(#clipPath8929872747)">
		<defs>
			<clipPath id="clipPath0485301107">
				<path d="M0 0L32 0L32 28.4444L0 28.4444L0 0Z" fill-rule="nonzero" transform="matrix(1 0 0 1 0 1.77778)"/>
			</clipPath>
		</defs>
		<g clip-path="url(#clipPath0485301107)">
			<path d="M30.3414 0.48018C30.0303 -0.137104 29.1414 -0.161795 28.7692 0.420921C27.047 3.08265 23.9636 4.74191 20.4414 4.74191L15.997 4.74191C10.1081 4.74191 5.33029 8.98882 5.33029 14.2234C5.33029 14.5691 5.37474 14.8999 5.41363 15.2357C8.95807 12.9789 14.0747 11.0629 21.3303 11.0629C21.8192 11.0629 22.2192 11.4185 22.2192 11.853C22.2192 12.2876 21.8192 12.6431 21.3303 12.6431C7.36363 12.6431 1.4414 20.253 0.130294 23.1123C-0.236373 23.9172 0.19696 24.8357 1.10252 25.1666C2.01363 25.5024 3.04696 25.1123 3.42474 24.3123C3.50807 24.1345 4.58585 21.9468 7.41918 19.8382C9.21918 22.0061 12.6414 24.0752 17.1358 23.6506C25.8581 23.0876 31.997 16.1345 31.997 7.62092C31.997 5.14191 31.397 2.57401 30.3414 0.48018Z" fill-rule="nonzero" transform="matrix(1 0 0 1 0.00304031 3.35686)" fill="rgb(255, 255, 255)"/>
		</g>
	</g>
	<path d="M1.59668 19L1.59668 4.4541L6.78223 4.4541Q8.47656 4.4541 9.58984 5.07422Q10.708 5.69434 11.2598 6.76367Q11.8164 7.82812 11.8164 9.16602Q11.8164 10.5039 11.2598 11.5732Q10.708 12.6426 9.58496 13.2676Q8.4668 13.8877 6.77734 13.8877L3.20801 13.8877L3.20801 12.0225L6.57227 12.0225Q7.65137 12.0225 8.31543 11.6514Q8.98438 11.2754 9.29688 10.6309Q9.60938 9.98633 9.60938 9.16602Q9.60938 8.34082 9.29688 7.70117Q8.98438 7.06152 8.31055 6.7002Q7.6416 6.33398 6.55273 6.33398L3.79395 6.33398L3.79395 19L1.59668 19Z" fill-rule="nonzero" transform="matrix(1 0 0 1 40 4)" fill="rgb(255, 255, 255)"/>
	<path d="M16.3339 4.4541L16.3339 19L14.2098 19L14.2098 4.4541L16.3339 4.4541Z" fill-rule="nonzero" transform="matrix(1 0 0 1 40 4)" fill="rgb(255, 255, 255)"/>
	<path d="M22.3672 19.2393Q21.3272 19.2393 20.4922 18.8535Q19.6573 18.4678 19.1641 17.7305Q18.6758 16.9883 18.6758 15.9189Q18.6758 14.9912 19.0323 14.3955Q19.3887 13.7998 19.9942 13.4531Q20.5997 13.1016 21.3418 12.9258Q22.0889 12.75 22.8653 12.6572Q23.8418 12.5449 24.4522 12.4717Q25.0625 12.3936 25.3409 12.2275Q25.6192 12.0566 25.6192 11.6709L25.6192 11.6172Q25.6192 10.6943 25.0967 10.1816Q24.5743 9.66895 23.5489 9.66895Q22.4747 9.66895 21.8594 10.1426Q21.2442 10.6113 21.0049 11.1875L19.0127 10.7334Q19.3692 9.7373 20.0528 9.12695Q20.7364 8.51172 21.6299 8.2334Q22.5284 7.9502 23.5147 7.9502Q24.169 7.9502 24.9014 8.10645Q25.6387 8.25781 26.2832 8.66309Q26.9278 9.06348 27.3379 9.81543Q27.7481 10.5625 27.7481 11.7539L27.7481 19L25.6729 19L25.6729 17.5107L25.585 17.5107Q25.3848 17.916 24.9747 18.3164Q24.5645 18.7168 23.9151 18.9805Q23.2706 19.2393 22.3672 19.2393ZM22.8262 17.54Q23.71 17.54 24.335 17.1934Q24.9649 16.8418 25.292 16.2803Q25.6241 15.7139 25.6241 15.0693L25.6241 13.6582Q25.5118 13.7754 25.1895 13.8682Q24.8672 13.9609 24.4522 14.0342Q24.042 14.1025 23.6514 14.1562Q23.2608 14.2051 22.9971 14.2393Q22.3819 14.3223 21.8692 14.5029Q21.3614 14.6836 21.0586 15.0303Q20.7559 15.377 20.7559 15.9434Q20.7559 16.7344 21.337 17.1396Q21.9229 17.54 22.8262 17.54Z" fill-rule="nonzero" transform="matrix(1 0 0 1 40 4)" fill="rgb(255, 255, 255)"/>
	<path d="M32.6974 12.5205L32.6974 19L30.5734 19L30.5734 8.0918L32.6144 8.0918L32.6144 9.86914L32.7512 9.86914Q33.1271 8.99512 33.9328 8.47266Q34.7385 7.9502 35.9641 7.9502Q37.0822 7.9502 37.9172 8.41895Q38.757 8.88281 39.2209 9.80078Q39.6848 10.7139 39.6799 12.0615L39.6799 19L37.5558 19L37.5558 12.3203Q37.5558 11.1289 36.9406 10.46Q36.3254 9.79102 35.2463 9.79102Q34.5041 9.79102 33.9279 10.1133Q33.3566 10.4307 33.0295 11.041Q32.7023 11.6514 32.6974 12.5205Z" fill-rule="nonzero" transform="matrix(1 0 0 1 40 4)" fill="rgb(255, 255, 255)"/>
	<path d="M47.6171 8.0918L47.6171 9.7959L41.6552 9.7959L41.6552 8.0918L47.6171 8.0918ZM43.2518 5.47949L45.3759 5.47949L45.3759 15.7969Q45.3759 16.4121 45.5565 16.7246Q45.7421 17.0371 46.0399 17.1445Q46.3378 17.252 46.6844 17.252Q46.9432 17.252 47.1288 17.2178Q47.3192 17.1836 47.4266 17.1641L47.8173 18.917Q47.6268 18.9854 47.285 19.0586Q46.9432 19.1367 46.4354 19.1465Q45.5956 19.1611 44.868 18.8486Q44.1454 18.5312 43.6962 17.8818Q43.2518 17.2275 43.2518 16.2363L43.2518 5.47949Z" fill-rule="nonzero" transform="matrix(1 0 0 1 40 4)" fill="rgb(255, 255, 255)"/>
	<path d="M67.5047 9.18066L65.2928 9.18066Q65.161 8.47266 64.8143 7.93555Q64.4676 7.39355 63.9647 7.01758Q63.4617 6.6416 62.8367 6.45117Q62.2166 6.26074 61.5233 6.26074Q60.2635 6.26074 59.2723 6.89062Q58.2811 7.52051 57.7049 8.74121Q57.1336 9.96191 57.1336 11.7295Q57.1336 13.5068 57.7098 14.7275Q58.286 15.9434 59.2772 16.5684Q60.2684 17.1934 61.5135 17.1934Q62.2069 17.1934 62.827 17.0078Q63.4471 16.8174 63.95 16.4512Q64.453 16.085 64.8045 15.5479Q65.1561 15.0107 65.2928 14.3125L67.5047 14.3174Q67.3289 15.3965 66.8211 16.29Q66.3133 17.1836 65.5223 17.8379Q64.7313 18.4922 63.7157 18.8486Q62.7 19.2002 61.4989 19.2002Q59.6092 19.2002 58.1297 18.3018Q56.6551 17.3984 55.8055 15.7236Q54.9608 14.0488 54.9608 11.7295Q54.9608 9.40039 55.8104 7.72559Q56.6649 6.05078 58.1395 5.15234Q59.619 4.25391 61.4989 4.25391Q62.6561 4.25391 63.6619 4.58594Q64.6678 4.91797 65.4686 5.55273Q66.2694 6.1875 66.7967 7.10059Q67.3241 8.01367 67.5047 9.18066Z" fill-rule="nonzero" transform="matrix(1 0 0 1 40 4)" fill="rgb(255, 255, 255)"/>
	<path d="M73.1412 19.2393Q72.1012 19.2393 71.2662 18.8535Q70.4312 18.4678 69.9381 17.7305Q69.4498 16.9883 69.4498 15.9189Q69.4498 14.9912 69.8062 14.3955Q70.1627 13.7998 70.7682 13.4531Q71.3736 13.1016 72.1158 12.9258Q72.8629 12.75 73.6393 12.6572Q74.6158 12.5449 75.2262 12.4717Q75.8365 12.3936 76.1148 12.2275Q76.3932 12.0566 76.3932 11.6709L76.3932 11.6172Q76.3932 10.6943 75.8707 10.1816Q75.3482 9.66895 74.3228 9.66895Q73.2486 9.66895 72.6334 10.1426Q72.0182 10.6113 71.7789 11.1875L69.7867 10.7334Q70.1432 9.7373 70.8268 9.12695Q71.5103 8.51172 72.4039 8.2334Q73.3023 7.9502 74.2887 7.9502Q74.943 7.9502 75.6754 8.10645Q76.4127 8.25781 77.0572 8.66309Q77.7018 9.06348 78.1119 9.81543Q78.5221 10.5625 78.5221 11.7539L78.5221 19L76.4469 19L76.4469 17.5107L76.359 17.5107Q76.1588 17.916 75.7486 18.3164Q75.3385 18.7168 74.6891 18.9805Q74.0445 19.2393 73.1412 19.2393ZM73.6002 17.54Q74.484 17.54 75.109 17.1934Q75.7389 16.8418 76.066 16.2803Q76.398 15.7139 76.398 15.0693L76.398 13.6582Q76.2857 13.7754 75.9635 13.8682Q75.6412 13.9609 75.2262 14.0342Q74.816 14.1025 74.4254 14.1562Q74.0348 14.2051 73.7711 14.2393Q73.1559 14.3223 72.6432 14.5029Q72.1353 14.6836 71.8326 15.0303Q71.5299 15.377 71.5299 15.9434Q71.5299 16.7344 72.1109 17.1396Q72.6969 17.54 73.6002 17.54Z" fill-rule="nonzero" transform="matrix(1 0 0 1 40 4)" fill="rgb(255, 255, 255)"/>
	<path d="M81.3474 19L81.3474 8.0918L83.4031 8.0918L83.4031 9.8252L83.5202 9.8252Q83.8181 8.94629 84.5701 8.43848Q85.3269 7.92578 86.2839 7.92578Q86.4841 7.92578 86.7527 7.94043Q87.0261 7.95508 87.1872 7.97949L87.1872 10.0107Q87.0603 9.97656 86.7331 9.92773Q86.4109 9.87891 86.0788 9.87891Q85.3318 9.87891 84.741 10.1963Q84.1501 10.5137 83.8083 11.0703Q83.4714 11.627 83.4714 12.3398L83.4714 19L81.3474 19Z" fill-rule="nonzero" transform="matrix(1 0 0 1 40 4)" fill="rgb(255, 255, 255)"/>
	<path d="M93.3413 19.2197Q91.73 19.2197 90.563 18.5264Q89.4009 17.833 88.771 16.5732Q88.146 15.3135 88.146 13.6191Q88.146 11.9395 88.771 10.665Q89.4009 9.38574 90.5337 8.66797Q91.6665 7.9502 93.1851 7.9502Q94.1128 7.9502 94.9771 8.25293Q95.8462 8.55566 96.5298 9.20996Q97.2183 9.86426 97.6187 10.9092Q98.0191 11.9492 98.0191 13.4336L98.0191 14.1807L89.3472 14.1807L89.3472 12.5889L95.9341 12.5889Q95.9341 11.7588 95.5923 11.1094Q95.2554 10.4551 94.6402 10.0791Q94.0298 9.70312 93.2046 9.70312Q92.3062 9.70312 91.6421 10.1426Q90.9829 10.5771 90.6216 11.2803Q90.2603 11.9785 90.2603 12.7939L90.2603 14.0342Q90.2603 15.1279 90.646 15.8945Q91.0366 16.6611 91.73 17.0664Q92.4282 17.4668 93.356 17.4668Q93.9663 17.4668 94.4595 17.2959Q94.9575 17.1201 95.3189 16.7734Q95.6802 16.4268 95.8755 15.9092L97.8823 16.2705Q97.6431 17.1592 97.023 17.8232Q96.4028 18.4873 95.4653 18.8535Q94.5278 19.2197 93.3413 19.2197Z" fill-rule="nonzero" transform="matrix(1 0 0 1 40 4)" fill="rgb(255, 255, 255)"/>
</svg>
