<?xml version="1.0" encoding="utf-8" ?>
<svg xmlns="http://www.w3.org/2000/svg" xmlns:xlink="http://www.w3.org/1999/xlink" width="40" height="40" viewBox="0 0 40 40">
	<defs>
		<clipPath id="clipPath2447582117">
			<path d="M0 0L40 0L40 40L0 40L0 0Z" fill-rule="nonzero" transform="matrix(1 0 0 1 0 0)"/>
		</clipPath>
	</defs>
	<g clip-path="url(#clipPath2447582117)">
		<defs>
			<clipPath id="clipPath4901530303">
				<path d="M0 0L40 0L40 40L0 40L0 0Z" fill-rule="nonzero" transform="matrix(1 0 0 1 -0 -0)"/>
			</clipPath>
		</defs>
		<g clip-path="url(#clipPath4901530303)">
			<path d="M19.375 0C8.67188 0 0 8.67188 0 19.375C0 30.0781 8.67188 38.75 19.375 38.75C30.0781 38.75 38.75 30.0781 38.75 19.375C38.75 8.67188 30.0781 0 19.375 0ZM19.375 7.5C23.1719 7.5 26.25 10.5781 26.25 14.375C26.25 18.1719 23.1719 21.25 19.375 21.25C15.5781 21.25 12.5 18.1719 12.5 14.375C12.5 10.5781 15.5781 7.5 19.375 7.5ZM19.375 34.375C14.7891 34.375 10.6797 32.2969 7.92969 29.0469C9.39844 26.2812 12.2734 24.375 15.625 24.375C15.8125 24.375 16 24.4062 16.1797 24.4609C17.1953 24.7891 18.2578 25 19.375 25C20.4922 25 21.5625 24.7891 22.5703 24.4609C22.75 24.4062 22.9375 24.375 23.125 24.375C26.4766 24.375 29.3516 26.2812 30.8203 29.0469C28.0703 32.2969 23.9609 34.375 19.375 34.375Z" fill-rule="nonzero" transform="matrix(1 0 0 1 0.625 0.625)" fill="rgb(156, 163, 175)"/>
		</g>
	</g>
</svg>
